<?xml version="1.0" encoding="utf-8"?>
<!-- Generator: Adobe Illustrator 21.0.0, SVG Export Plug-In . SVG Version: 6.00 Build 0)  -->
<svg version="1.1" id="Layer_1" xmlns="http://www.w3.org/2000/svg" xmlns:xlink="http://www.w3.org/1999/xlink" x="0px" y="0px"
	 viewBox="0 0 921 751" style="enable-background:new 0 0 921 751;" xml:space="preserve">
<style type="text/css">
	.st0{fill:none;}
	.st1{fill:#FFFFFF;stroke:#FFFFFF;stroke-width:5;stroke-miterlimit:10;}
</style>
<g>
	<rect x="99.6" y="156.4" class="st0" width="761.4" height="424.6"/>
	<path class="st1" d="M601,173c0,5.9-2.3,11.2-6.8,16.1c-4.6,4.9-9.6,7.3-15.1,7.3c-2.9,0-6-0.5-9.3-1.5c-3.3-1-5.9-1.9-7.8-2.7
		c-0.2,0-2.1-0.8-5.9-2.4C545.5,374,520.4,508.3,480.7,593c-10.4,22-22.8,33-37.1,33c-40.4,0-70.4-79.5-90.1-238.5
		c-25.9,77-47.2,131.1-64,162.4C270.6,585.2,252,603,233.6,603c-12.7,0-24.6-7.7-35.6-22.9c-10.6-14.6-22.1-38.7-34.4-72
		c-24.6-66.7-36.9-166.9-36.9-300.5v-17.6c-3.3,0.3-7.6,1.1-12.9,2.2c-4.6,1-7.8,1.5-9.8,1.5c-16.3,0-24.4-8.4-24.4-25.1
		c0-19.7,26-29.5,78.1-29.5c24.3,0,43.7,3.1,58.3,9.2s22,13.7,22,22.8c0,17.4-7.8,26.1-23.4,26.1c-3.9,0-9.8-1.1-17.8-3.4
		c-8.8-2.6-15.9-4.2-21.2-4.6l-1,61c0,121.3,20.2,220.1,60.5,296.4c25.1-34.7,53.5-104.2,85.4-208.5c5.7-18.6,11.4-41.4,17.1-68.6
		c4.7-22.5,8.5-36.8,11.2-43c4.4-9.9,10.8-14.9,19.3-14.9c11.9,0,19.6,5.6,23.2,16.8c2.4,8,3.7,24.6,3.7,49.8
		c0,4.1-0.1,8.9-0.2,14.5c-0.2,5.6-0.2,9.1-0.2,10.4c0,99,16.2,185.3,48.6,259c34.2-87.2,55.8-212.9,64.9-377
		c-2.4,0.2-6.6,0.9-12.5,2.2c-4.9,1.1-8.7,1.7-11.5,1.7c-16,0-23.9-8.3-23.9-24.9c0-19,21.8-28.6,65.4-28.6
		c22.1,0,40.5,3.9,55.2,11.7C594.3,154.5,601,163.1,601,173z"/>
	<path class="st1" d="M807.6,324.9c0,5.7-1.8,10.5-5.4,14.5c-3.6,4-7.8,6-12.7,6c-2.4,0-11.8-3.2-28-9.5c-16.2-6.3-32-9.5-47.5-9.5
		c-4.9,0-10,0.3-15.4,1c-6,26.5-9,50.9-9,73c0,28.5,4.8,50.4,14.4,65.7c9.6,15.3,22.9,22.9,40,22.9c5.2,0,12.1-1.7,20.6-5
		c8.5-3.3,14.7-5,18.4-5c13,0,19.5,7.7,19.5,22.9c0,9.9-5.4,18-16.1,24.2c-10.7,6.2-25.4,9.3-43.9,9.3c-69,0-103.5-46-103.5-137.9
		c0-19.4,2.4-40.7,7.1-64c-4.6,0.7-14.4,2.5-29.5,5.6c-9.9,2-17.3,2.9-22,2.9c-17.4,0-26.1-6.7-26.1-20c0-18.2,30-30.1,90.1-35.6
		c12.4-39.2,27.5-58.8,45.4-58.8c5.5,0,10.3,2,14.2,6c3.9,4,5.9,8.8,5.9,14.5c0,4.2-1.2,9.6-3.7,16c-2.4,6.4-4.9,12.9-7.3,19.4
		C776.1,285.5,807.6,299.3,807.6,324.9z"/>
</g>
<g>
</g>
<g>
</g>
<g>
</g>
<g>
</g>
<g>
</g>
<g>
</g>
<g>
</g>
<g>
</g>
<g>
</g>
<g>
</g>
<g>
</g>
<g>
</g>
<g>
</g>
<g>
</g>
<g>
</g>
</svg>
